<?xml version="1.0" standalone="no"?>
<!DOCTYPE svg PUBLIC "-//W3C//DTD SVG 20010904//EN"
 "http://www.w3.org/TR/2001/REC-SVG-20010904/DTD/svg10.dtd">
<svg version="1.0" xmlns="http://www.w3.org/2000/svg"
 width="1200.000000pt" height="1200.000000pt" viewBox="0 0 1200.000000 1200.000000"
 preserveAspectRatio="xMidYMid meet">
<metadata>
Created by potrace 1.14, written by Peter Selinger 2001-2017
</metadata>
<g transform="translate(0.000000,1200.000000) scale(0.100000,-0.100000)"
fill="#000000" stroke="none">
<path d="M5707 11074 c-1 -2 -45 -5 -97 -8 -99 -6 -131 -9 -240 -21 -70 -7
-73 -7 -195 -26 -44 -6 -89 -13 -100 -14 -63 -9 -301 -61 -431 -95 -393 -103
-782 -257 -1129 -447 -586 -322 -1067 -719 -1502 -1240 -386 -464 -705 -1042
-899 -1628 -46 -141 -113 -379 -129 -457 -3 -16 -7 -38 -10 -50 -3 -13 -13
-63 -24 -111 -10 -48 -20 -89 -22 -92 -3 -2 -161 -6 -353 -9 -362 -6 -482 -16
-195 -16 90 -1 315 -3 499 -5 1563 -21 2820 -27 5180 -27 2280 1 4008 10 5135
27 121 2 289 4 374 4 85 1 151 4 148 7 -4 4 -125 8 -269 10 -449 5 -498 7
-504 15 -3 5 -18 71 -34 147 -67 326 -174 665 -307 972 -48 111 -174 368 -219
448 -119 208 -222 370 -338 527 -71 97 -191 251 -206 265 -3 3 -18 21 -34 40
-130 158 -393 421 -576 575 -52 44 -97 82 -100 85 -3 3 -34 28 -70 55 -36 27
-69 53 -75 58 -30 25 -163 118 -250 175 -347 229 -740 424 -1125 557 -96 34
-310 100 -352 110 -13 2 -59 14 -103 25 -78 20 -305 68 -355 75 -282 41 -341
48 -510 61 -82 6 -578 13 -583 8z m568 -68 c39 -3 99 -9 135 -12 36 -3 81 -7
100 -10 19 -2 60 -7 90 -10 45 -5 188 -29 340 -58 95 -17 298 -68 390 -96 19
-6 42 -13 50 -15 157 -37 533 -186 780 -309 507 -253 926 -555 1329 -957 138
-138 221 -230 389 -434 75 -91 269 -370 347 -500 208 -344 370 -697 488 -1060
35 -110 76 -244 82 -274 2 -9 19 -83 39 -166 19 -82 37 -166 40 -186 l5 -35
-114 1 c-63 1 -117 3 -119 6 -2 2 -7 24 -11 48 -13 87 -104 429 -154 578 -224
666 -598 1286 -1075 1781 -350 364 -694 631 -1138 886 -103 58 -354 179 -502
240 -294 123 -617 219 -926 277 -58 11 -116 22 -130 24 -23 5 -215 30 -305 40
-216 25 -768 25 -935 0 -14 -2 -50 -6 -80 -10 -30 -3 -73 -8 -95 -11 -37 -5
-52 -7 -130 -20 -791 -129 -1535 -454 -2170 -948 -49 -39 -92 -73 -95 -76 -3
-3 -34 -30 -70 -60 -141 -119 -370 -343 -475 -465 -33 -38 -73 -84 -89 -102
-146 -165 -386 -514 -527 -768 -36 -66 -179 -352 -179 -360 0 -2 -11 -28 -24
-57 -55 -122 -160 -408 -172 -467 -3 -13 -9 -31 -13 -40 -10 -19 -95 -360
-111 -441 l-11 -56 -117 1 c-96 0 -116 3 -114 14 3 15 20 97 28 141 4 22 31
136 38 165 2 6 6 24 11 40 145 572 417 1159 759 1640 85 120 70 100 198 260
140 175 158 194 348 386 137 138 270 259 421 384 62 51 295 219 399 287 272
177 597 347 880 458 30 12 64 26 75 30 63 26 270 95 420 139 57 17 187 49 265
66 111 24 171 37 199 41 18 3 43 8 55 10 11 2 55 9 96 15 41 5 86 12 100 14
24 4 90 11 175 20 22 2 92 7 155 11 63 3 116 7 117 8 6 5 473 -2 538 -8z m40
-290 c28 -2 73 -7 100 -10 28 -3 75 -8 105 -11 30 -4 76 -11 103 -16 26 -5 51
-8 55 -8 4 1 9 1 12 -1 3 -1 17 -3 32 -5 70 -9 210 -39 335 -71 76 -19 149
-37 162 -40 54 -12 355 -115 476 -163 347 -140 701 -334 997 -548 48 -34 95
-69 105 -77 10 -8 54 -43 98 -77 44 -35 85 -68 91 -73 6 -6 40 -36 75 -66 98
-84 365 -353 460 -465 460 -539 780 -1133 968 -1795 21 -74 44 -157 50 -185 7
-27 16 -66 21 -85 5 -19 12 -53 16 -75 3 -22 8 -43 11 -47 5 -9 -7 -10 -92
-10 -130 0 -1834 14 -1895 15 l-65 2 -19 55 c-147 432 -447 865 -776 1120 -25
19 -47 37 -50 40 -3 4 -41 31 -85 61 -44 30 -81 57 -83 62 -2 4 -8 7 -13 7 -5
0 -38 18 -74 40 -144 88 -358 183 -541 239 -55 17 -109 33 -120 35 -10 2 -46
11 -79 19 -62 16 -206 44 -266 51 -19 3 -61 8 -94 11 -33 4 -73 9 -90 12 -37
7 -2883 16 -2899 10 -8 -3 -11 -19 -8 -41 l4 -36 82 0 c137 0 240 -40 339
-130 86 -79 137 -169 152 -272 4 -23 7 -322 7 -663 l0 -620 -228 -1 c-126 -1
-668 -5 -1204 -9 -536 -4 -1026 -8 -1087 -9 -73 -1 -113 2 -113 9 0 5 5 28 10
50 5 22 11 51 13 65 3 14 12 54 21 90 9 36 18 74 21 85 2 11 11 45 20 75 9 30
20 69 24 85 13 48 90 272 126 365 180 461 452 922 770 1305 168 202 417 453
585 591 19 16 44 37 55 47 11 10 79 63 150 116 349 263 642 430 1100 626 41
17 321 115 345 120 3 1 37 11 75 23 73 22 262 71 305 78 14 3 41 9 60 14 19 5
49 11 65 14 17 3 68 12 115 20 47 8 110 17 140 21 30 3 66 8 80 10 29 6 90 12
205 21 44 3 81 7 83 9 4 4 601 -3 657 -9z m-120 -2290 c22 -3 69 -11 105 -16
89 -14 118 -19 165 -32 22 -5 49 -12 60 -14 42 -8 212 -68 287 -101 311 -136
598 -367 801 -644 74 -101 88 -123 162 -255 70 -126 190 -415 186 -450 -1 -8
-3528 -10 -3536 -2 -4 4 -7 686 -5 1330 l0 197 868 -3 c477 -2 885 -7 907 -10z"/>
<path d="M11730 6869 c0 -5 11 -9 25 -9 14 0 25 2 25 4 0 2 -11 6 -25 8 -14 3
-25 1 -25 -3z"/>
<path d="M11816 6872 c-3 -5 1 -9 9 -9 8 0 12 4 9 9 -3 4 -7 8 -9 8 -2 0 -6
-4 -9 -8z"/>
<path d="M188 6863 c7 -3 16 -2 19 1 4 3 -2 6 -13 5 -11 0 -14 -3 -6 -6z"/>
<path d="M3322 6520 c-9 -6 -12 -100 -3 -101 3 0 27 -2 54 -3 36 -1 47 2 48
14 0 8 1 32 2 53 1 20 0 37 -3 38 -20 4 -92 4 -98 -1z"/>
<path d="M4259 6510 c0 -8 -2 -25 -3 -36 -5 -47 9 -61 60 -59 l49 1 0 54 0 54
-53 1 c-39 0 -52 -4 -53 -15z"/>
<path d="M7716 6520 c-3 -5 -1 -860 2 -892 3 -24 61 -88 91 -100 32 -13 172
-19 186 -8 6 5 9 29 7 54 -3 34 -8 46 -21 47 -9 0 -38 1 -66 1 -27 0 -60 6
-72 14 l-22 14 0 417 c0 230 0 427 -1 438 0 17 -7 20 -51 20 -28 1 -52 -2 -53
-5z"/>
<path d="M2230 5987 l0 -474 418 1 419 1 37 29 c68 52 69 59 68 448 0 337 -1
348 -22 386 -44 78 -33 77 -502 80 l-418 3 0 -474z m823 341 c21 -33 19 -667
-2 -691 -12 -15 -49 -17 -347 -17 -305 0 -336 2 -351 18 -16 15 -18 46 -18
348 0 265 3 334 14 348 12 14 50 16 352 16 l339 0 13 -22z"/>
<path d="M6685 6446 c-2 -6 -3 -218 -2 -471 l2 -460 53 -1 52 -1 0 176 0 176
364 0 364 0 39 31 c62 50 67 68 69 259 1 119 -2 179 -11 200 -19 43 -60 83
-98 93 -50 14 -828 12 -832 -2z m815 -106 c12 -7 16 -40 18 -169 3 -146 1
-162 -16 -179 -18 -18 -38 -19 -349 -18 -264 1 -333 4 -346 15 -24 20 -25 321
-1 345 13 14 59 16 347 16 191 0 338 -4 347 -10z"/>
<path d="M3316 6270 c-2 -3 -2 -174 -2 -380 l1 -375 53 -1 c41 0 52 3 53 15 1
20 1 675 0 716 -1 29 -2 30 -52 30 -28 0 -52 -2 -53 -5z"/>
<path d="M3711 6269 c-44 -9 -75 -33 -102 -75 -22 -36 -22 -42 -23 -351 -1
-173 1 -318 4 -323 3 -4 27 -7 55 -6 l50 1 0 312 c0 293 1 313 19 326 14 11
67 13 237 13 121 -1 219 2 220 7 1 9 1 73 0 90 -1 9 -51 12 -216 12 -117 0
-228 -3 -244 -6z"/>
<path d="M4259 6255 c-1 -28 -1 -717 0 -731 1 -7 22 -11 54 -10 l52 1 0 380 0
379 -52 1 c-47 1 -53 -2 -54 -20z"/>
<path d="M4534 6271 c-2 -2 -4 -143 -4 -313 0 -323 3 -345 46 -394 42 -46 55
-48 335 -49 301 -2 322 2 369 72 l25 37 0 325 0 326 -52 0 -53 0 -1 -35 c0
-19 -1 -158 -1 -308 0 -247 -2 -276 -17 -291 -16 -16 -43 -18 -264 -18 -218 0
-248 2 -262 17 -12 14 -15 66 -17 326 l-3 309 -48 0 c-27 0 -50 -2 -53 -4z"/>
<path d="M5523 6264 c-80 -28 -110 -87 -108 -211 2 -108 19 -148 77 -186 l42
-27 257 0 c293 0 288 1 290 -78 3 -147 19 -139 -274 -139 -133 0 -248 3 -255
7 -8 3 -19 17 -25 31 -11 20 -19 24 -62 23 -49 0 -50 0 -46 -30 7 -59 50 -113
106 -131 17 -6 141 -10 290 -9 252 1 261 2 297 24 62 38 75 70 77 183 2 115
-11 155 -67 197 -38 29 -50 30 -457 32 -60 0 -116 4 -124 9 -19 12 -23 164 -5
189 11 15 37 17 256 18 256 2 288 -3 288 -44 0 -15 9 -18 53 -17 46 1 52 3 55
23 5 32 -37 100 -76 124 -33 20 -49 21 -294 22 -178 1 -271 -2 -295 -10z"/>
<path d="M8115 6272 c-3 -3 -5 -147 -5 -320 0 -306 1 -315 22 -354 12 -21 38
-49 58 -61 34 -21 45 -22 295 -23 143 0 273 3 289 8 35 9 72 42 94 83 14 26
16 76 17 348 0 174 -2 318 -5 318 -3 1 -26 2 -52 3 -45 1 -48 0 -49 -24 0 -14
-1 -153 -1 -309 -1 -256 -2 -285 -18 -301 -16 -16 -44 -17 -261 -18 -208 0
-247 2 -261 15 -16 15 -18 43 -18 325 0 239 -3 308 -12 309 -52 4 -89 5 -93 1z"/>
<path d="M9120 6269 c-46 -10 -82 -39 -106 -85 -28 -55 -27 -218 1 -261 52
-79 69 -83 364 -83 214 0 252 -2 265 -16 12 -11 16 -36 16 -94 0 -112 11 -108
-284 -108 -221 1 -240 2 -258 20 -10 10 -16 23 -13 27 7 12 -13 17 -65 16 -48
-1 -50 -4 -36 -61 8 -37 59 -87 101 -101 17 -5 147 -9 290 -9 255 1 261 1 298
25 62 38 79 85 75 205 -3 116 -20 152 -87 186 -34 17 -62 19 -292 19 -302 1
-288 -4 -286 116 1 45 7 79 15 87 17 17 500 21 521 4 7 -5 17 -20 21 -32 7
-18 15 -21 56 -19 54 2 60 10 44 60 -14 41 -50 81 -89 97 -29 12 -497 18 -551
7z"/>
<path d="M3337 5163 c-2 -1 -367 -5 -812 -8 -1263 -8 -2275 -21 -2283 -30 -3
-3 48 -5 114 -6 130 0 551 -6 572 -8 6 -1 11 -4 10 -8 -4 -15 40 -227 73 -357
11 -43 22 -87 24 -98 8 -39 99 -317 140 -428 224 -597 546 -1130 979 -1619 68
-76 370 -376 431 -428 151 -126 211 -175 319 -256 522 -390 1129 -681 1766
-846 138 -36 384 -86 496 -101 44 -6 89 -12 100 -14 10 -2 48 -7 84 -11 36 -3
79 -8 95 -10 225 -30 831 -24 1080 10 17 2 53 7 80 10 28 3 61 8 75 10 14 3
43 7 65 11 22 3 54 8 70 11 17 3 39 7 50 8 121 18 479 110 655 168 762 252
1444 671 1999 1228 239 240 407 440 592 704 189 270 398 653 519 950 29 72 59
144 65 160 61 142 190 600 230 813 l18 92 31 1 c39 1 528 7 655 8 52 1 92 4
88 7 -7 8 -714 18 -2137 30 -585 6 -6239 12 -6243 7z m-2097 -115 c131 -649
415 -1303 799 -1838 77 -108 203 -269 256 -329 16 -19 52 -59 80 -90 232 -260
560 -547 860 -753 429 -294 911 -518 1425 -663 94 -27 113 -31 160 -41 13 -3
60 -13 105 -23 44 -10 96 -22 115 -25 19 -3 46 -8 60 -11 14 -3 45 -8 70 -11
25 -3 54 -8 65 -11 11 -2 37 -6 58 -8 20 -2 61 -7 90 -10 259 -34 786 -39
1017 -10 19 2 62 7 95 10 134 13 300 41 460 77 50 11 101 22 115 24 100 20
449 130 565 178 22 10 40 17 40 16 0 -3 64 23 179 73 473 202 960 522 1345
882 476 445 844 960 1113 1555 95 210 204 519 258 730 28 110 25 98 53 225
l23 110 117 3 c64 2 117 1 117 -1 0 -3 -9 -49 -21 -103 -11 -55 -23 -110 -25
-124 -30 -155 -138 -503 -224 -721 -299 -756 -751 -1396 -1381 -1954 -291
-258 -707 -535 -1069 -712 -136 -67 -417 -190 -450 -198 -8 -2 -60 -20 -115
-41 -188 -69 -560 -168 -742 -199 -18 -3 -48 -7 -65 -10 -18 -3 -58 -10 -88
-15 -64 -11 -113 -17 -272 -35 -244 -26 -759 -26 -968 0 -19 2 -62 7 -95 10
-33 4 -71 8 -85 10 -14 3 -56 9 -95 15 -122 18 -138 21 -210 35 -38 8 -81 17
-95 19 -39 6 -267 65 -345 88 -38 12 -74 22 -80 24 -5 1 -58 18 -118 38 -552
184 -1113 495 -1577 875 -143 118 -180 151 -370 341 -184 183 -252 259 -391
435 -263 333 -465 666 -652 1075 -77 168 -192 488 -243 674 -33 120 -28 99
-68 281 -20 88 -38 168 -40 178 -4 15 7 17 114 17 l117 0 13 -62z m1770 47
c498 -4 907 -8 909 -10 5 -5 3 -1246 -3 -1270 -23 -109 -59 -181 -126 -257
-89 -102 -213 -156 -365 -160 l-90 -3 0 -38 0 -38 1440 4 c792 2 1451 6 1465
9 14 4 57 9 95 12 74 7 82 8 215 32 115 22 107 20 180 39 36 9 72 18 80 20 8
2 57 17 109 35 550 186 988 512 1302 970 107 156 221 380 280 552 l34 98 70 1
c39 0 315 2 615 4 300 3 731 6 958 9 226 2 410 1 408 -2 -2 -4 -7 -24 -10 -44
-15 -95 -55 -254 -111 -443 -138 -464 -375 -946 -666 -1357 -77 -107 -257
-335 -328 -413 -56 -61 -329 -334 -391 -391 -275 -249 -741 -562 -1065 -714
-174 -81 -231 -106 -320 -142 -165 -66 -475 -169 -555 -184 -14 -3 -50 -12
-80 -20 -30 -8 -67 -17 -82 -19 -15 -2 -44 -8 -65 -14 -61 -16 -306 -57 -403
-67 -25 -2 -61 -6 -80 -9 -232 -28 -765 -28 -995 0 -147 18 -171 21 -287 41
-454 76 -880 215 -1303 424 -187 93 -464 254 -591 345 -70 51 -194 142 -214
158 -48 37 -176 142 -180 147 -3 3 -43 39 -90 80 -336 298 -673 710 -915 1120
-75 127 -218 409 -260 510 -14 36 -32 79 -40 95 -26 57 -102 270 -138 385 -46
145 -127 470 -127 505 0 13 60 14 408 10 224 -2 814 -7 1312 -10z m4918 -124
c-77 -225 -247 -531 -383 -691 -203 -238 -419 -407 -677 -529 -128 -61 -307
-124 -413 -145 -5 -1 -23 -5 -40 -9 -33 -7 -92 -16 -142 -23 -18 -2 -50 -7
-70 -10 -21 -4 -431 -9 -910 -11 l-873 -4 0 85 c-1 47 -1 196 -1 331 0 135 0
442 1 683 l0 439 1774 0 1774 0 -40 -116z"/>
<path d="M11730 5128 c0 -4 14 -8 30 -8 17 0 30 2 30 4 0 2 -13 6 -30 8 -16 3
-30 1 -30 -4z"/>
<path d="M208 5123 c7 -3 16 -2 19 1 4 3 -2 6 -13 5 -11 0 -14 -3 -6 -6z"/>
</g>
</svg>
